# xmcd
#
# Track frame offsets: 
#        150
#        13345
#        26572
#        40295
#        54195
#        66852
#        79817
#        94167
#        106615
#        119000
#        132792
#        145640
#        158402
#        172660
#        185732
#        199670
#        211625
#        225652
#        239912
#        251225
#        262082
#        274087
#        287335
#        299932
#        312607
#
# Disc length: 4349 seconds
#
# Revision: 2
# Processed by: cddbd v1.5.2PL0 Copyright (c) Steve Scherf et al.
# Submitted via: ExactAudioCopy v1.0b1
#
DISCID=7210fb19
DTITLE=T-Bone Walker - The Complete Capitol - Black and White Recordings
DTITLE=[CD2]
DYEAR=1995
DGENRE=Blues
TTITLE0=Long Lost Lover Blues (alt)
TTITLE1=Long Lost Lover Blues
TTITLE2=Triflin' Woman Blues (alt)
TTITLE3=Triflin' Woman Blues
TTITLE4=Long Skirt Baby Blues (alt)
TTITLE5=Long Skirt Baby Blues
TTITLE6=Goodbye Blues
TTITLE7=Too Much Trouble Blues (alt)
TTITLE8=Too Much Trouble Blues
TTITLE9=I'm Waiting For Your Call
TTITLE10=Hypin' Woman Blues (alt)
TTITLE11=Hypin' Woman Blues
TTITLE12=So Blue Blues
TTITLE13=On Your Way Blues
TTITLE14=Natural Blues
TTITLE15=That's Better For Me
TTITLE16=First Love Blues (alt)
TTITLE17=First Love Blues
TTITLE18=Lonesome Woman Blues (alt 1)
TTITLE19=Lonesome Woman Blues (alt 2)
TTITLE20=Lonesome Woman Blues
TTITLE21=Vacation Blues
TTITLE22=Inspiration Blues (alt)
TTITLE23=Inspiration Blues
TTITLE24=Description Blues (alt)
EXTD=
EXTT0=
EXTT1=
EXTT2=
EXTT3=
EXTT4=
EXTT5=
EXTT6=
EXTT7=
EXTT8=
EXTT9=
EXTT10=
EXTT11=
EXTT12=
EXTT13=
EXTT14=
EXTT15=
EXTT16=
EXTT17=
EXTT18=
EXTT19=
EXTT20=
EXTT21=
EXTT22=
EXTT23=
EXTT24=
PLAYORDER=
